<svg
   id="svg4"
   version="1.1"
   width="16"
   viewBox="0 0 16 16"
   height="16">
  <defs
     id="defs8" />
  <path
     fill="currentColor"
     d="M 12.787109 0.57617188 L 12.550781 0.88085938 L 12.232422 1.2910156 L 1.9824219 1.2910156 C 1.4284219 1.2910156 0.98242187 1.7370156 0.98242188 2.2910156 L 0.98242188 14.523438 C 0.98242188 15.077438 1.4284219 15.523437 1.9824219 15.523438 L 12.275391 15.523438 C 12.829391 15.523438 13.275391 15.077438 13.275391 14.523438 L 13.275391 6.0097656 L 15.744141 2.8203125 L 12.787109 0.57617188 z M 12.931641 1.6640625 L 14.646484 2.9648438 L 11.033203 7.6308594 L 9.390625 7.9707031 L 9.3144531 6.3359375 L 12.931641 1.6640625 z M 2.9824219 3.2910156 L 10.685547 3.2910156 L 8.5214844 6.0859375 L 8.6523438 8.9199219 L 11.275391 8.3789062 L 11.275391 13.523438 L 2.9824219 13.523438 L 2.9824219 3.2910156 z "
     id="path2" />
  <path
     d="M 3.5482993,4.462585 H 10.110979 V 4.8544217 H 3.5482993 Z"
     fill="currentColor"
     id="rect835" />
  <path
     d="M 3.5482993,5.8122449 H 8.9719114 V 6.2040816 H 3.5482993 Z"
     fill="currentColor"
     id="rect837" />
  <path
     d="m 3.5482993,7.1619048 h 5.500576 v 0.3918367 h -5.500576 z"
     fill="currentColor"
     id="rect839" />
  <rect
     fill="currentColor"
     id="rect846"
     width="5.0938773"
     height="0.39183673"
     x="3.5482993"
     y="8.5115652" />
</svg>
