<svg
   id="svg4"
   version="1.1"
   width="16"
   viewBox="0 0 16 16"
   height="16">
  <defs
     id="defs8" />
  <path
     id="path2"
     fill="currentColor"
     d="m 1.9830111,5.85781 c -0.554,0 -1.00000001,0.446 -1.00000001,1 l 0,7.665545 c 0,0.554 0.44600001,1 1.00000001,1 H 14.123142 c 0.554,0 1,-0.446 1,-1 l 0,-7.665545 c 0,-0.554 -0.446,-1 -1,-1 z m 1,2 H 13.123142 l 0,5.665545 H 2.9830111 Z" />
  <path
     fill="currentColor"
     d="m 1.1775689,1.3216527 c -0.55399998,0 -0.99999999,0.446 -0.99999999,1 v 4.5552049 c 0,0.554 0.44600001,1 0.99999999,1 H 14.950353 c 0.554,0 1,-0.446 1,-1 V 2.3216527 c 0,-0.554 -0.446,-1 -1,-1 z m 1,2 H 13.950353 V 5.8768576 H 2.1775689 Z"
     id="path863" />
  <path
     d="M 6.5401514,0.54421768 H 9.5877705 V 2.1115646 H 6.5401514 Z"
     fill="currentColor"
     id="rect865" />
  <path
     id="path872"
     d="M 3.5605469 8.4042969 L 3.5605469 13.144531 L 5.0605469 13.144531 L 5.0605469 8.4042969 L 3.5605469 8.4042969 z "
     fill="currentColor"
     />
  <path
     fill="currentColor"
     d="m 7.1959209,8.4042969 v 4.7402341 h 1.5 V 8.4042969 Z"
     id="path874" />
  <path
     id="path876"
     d="m 10.831295,8.4042969 v 4.7402341 h 1.5 V 8.4042969 Z"
     fill="currentColor"
     />
</svg>
